<?xml version="1.0" encoding="UTF-8"?>
<!DOCTYPE svg PUBLIC "-//W3C//DTD SVG 1.1//EN" "http://www.w3.org/Graphics/SVG/1.1/DTD/svg11.dtd">
<svg xmlns="http://www.w3.org/2000/svg" version="1.1" width="776px" height="768px" style="shape-rendering:geometricPrecision; text-rendering:geometricPrecision; image-rendering:optimizeQuality; fill-rule:evenodd; clip-rule:evenodd" xmlns:xlink="http://www.w3.org/1999/xlink">
<g><path style="opacity:1" fill="#fefefe" d="M -0.5,-0.5 C 258.167,-0.5 516.833,-0.5 775.5,-0.5C 775.5,255.5 775.5,511.5 775.5,767.5C 516.833,767.5 258.167,767.5 -0.5,767.5C -0.5,511.5 -0.5,255.5 -0.5,-0.5 Z"/></g>
<g><path style="opacity:1" fill="#139cdf" d="M 567.5,90.5 C 568.768,92.047 570.435,93.047 572.5,93.5C 577.504,96.1749 581.504,99.8416 584.5,104.5C 584.166,107.491 585.166,109.824 587.5,111.5C 587.328,112.492 587.662,113.158 588.5,113.5C 588.674,116.874 589.174,120.207 590,123.5C 590.383,124.056 590.883,124.389 591.5,124.5C 593.42,127.502 594.42,130.835 594.5,134.5C 594.796,136.403 595.463,138.07 596.5,139.5C 597.5,142.167 598.5,144.833 599.5,147.5C 599.338,149.527 599.505,151.527 600,153.5C 600.383,154.056 600.883,154.389 601.5,154.5C 610.208,179.271 618.208,204.271 625.5,229.5C 625.923,231.781 625.256,233.448 623.5,234.5C 619.348,229.181 615.015,224.015 610.5,219C 604.976,215.509 599.643,211.842 594.5,208C 588.496,205.082 582.163,203.249 575.5,202.5C 573.615,200.689 571.281,199.522 568.5,199C 562.851,198.243 557.184,197.743 551.5,197.5C 436.001,196.5 320.335,196.167 204.5,196.5C 204.5,195.167 204.5,193.833 204.5,192.5C 204.704,189.482 205.037,186.482 205.5,183.5C 205.5,182.5 205.5,181.5 205.5,180.5C 207.99,174.537 208.99,168.204 208.5,161.5C 209.451,160.081 209.784,158.415 209.5,156.5C 210.117,156.389 210.617,156.056 211,155.5C 211.696,152.522 212.196,149.522 212.5,146.5C 212.612,141.386 213.279,136.386 214.5,131.5C 215.924,129.485 216.59,127.152 216.5,124.5C 216.608,119.29 217.275,114.29 218.5,109.5C 219.371,106.997 220.037,104.33 220.5,101.5C 220.659,96.8887 221.325,92.3887 222.5,88C 334.833,87.3333 447.167,87.3333 559.5,88C 562.08,89.1445 564.747,89.9778 567.5,90.5 Z"/></g>
<g><path style="opacity:1" fill="#9dd5ed" d="M 567.5,90.5 C 569.848,90.5923 571.514,91.5923 572.5,93.5C 570.435,93.047 568.768,92.047 567.5,90.5 Z"/></g>
<g><path style="opacity:1" fill="#aeddf1" d="M 220.5,101.5 C 220.037,104.33 219.371,106.997 218.5,109.5C 218.337,107.143 218.503,104.81 219,102.5C 219.383,101.944 219.883,101.611 220.5,101.5 Z"/></g>
<g><path style="opacity:1" fill="#64bbe4" d="M 584.5,104.5 C 586.065,106.509 587.065,108.843 587.5,111.5C 585.166,109.824 584.166,107.491 584.5,104.5 Z"/></g>
<g><path style="opacity:1" fill="#59b7e4" d="M 588.5,113.5 C 589.866,116.961 590.866,120.627 591.5,124.5C 590.883,124.389 590.383,124.056 590,123.5C 589.174,120.207 588.674,116.874 588.5,113.5 Z"/></g>
<g><path style="opacity:1" fill="#6dbfe6" d="M 216.5,124.5 C 216.59,127.152 215.924,129.485 214.5,131.5C 213.99,128.612 214.656,126.279 216.5,124.5 Z"/></g>
<g><path style="opacity:1" fill="#88cdeb" d="M 594.5,134.5 C 596.213,135.635 596.88,137.302 596.5,139.5C 595.463,138.07 594.796,136.403 594.5,134.5 Z"/></g>
<g><path style="opacity:1" fill="#69bfe6" d="M 599.5,147.5 C 600.407,149.657 601.073,151.99 601.5,154.5C 600.883,154.389 600.383,154.056 600,153.5C 599.505,151.527 599.338,149.527 599.5,147.5 Z"/></g>
<g><path style="opacity:1" fill="#68bee6" d="M 212.5,146.5 C 212.196,149.522 211.696,152.522 211,155.5C 210.617,156.056 210.117,156.389 209.5,156.5C 209.69,152.705 210.69,149.372 212.5,146.5 Z"/></g>
<g><path style="opacity:1" fill="#6cbee6" d="M 208.5,161.5 C 208.99,168.204 207.99,174.537 205.5,180.5C 206.103,173.973 207.103,167.639 208.5,161.5 Z"/></g>
<g><path style="opacity:1" fill="#1aa0df" d="M 204.5,192.5 C 204.5,193.833 204.5,195.167 204.5,196.5C 320.335,196.167 436.001,196.5 551.5,197.5C 435.5,197.5 319.5,197.5 203.5,197.5C 203.216,195.585 203.549,193.919 204.5,192.5 Z"/></g>
<g><path style="opacity:1" fill="#31a9dd" d="M 203.5,197.5 C 319.5,197.5 435.5,197.5 551.5,197.5C 557.184,197.743 562.851,198.243 568.5,199C 571.281,199.522 573.615,200.689 575.5,202.5C 568.949,200.779 562.283,199.612 555.5,199C 437.999,198.833 320.666,198.333 203.5,197.5 Z"/></g>
<g><path style="opacity:1" fill="#40b0dd" d="M 205.5,183.5 C 205.037,186.482 204.704,189.482 204.5,192.5C 203.549,193.919 203.216,195.585 203.5,197.5C 320.666,198.333 437.999,198.833 555.5,199C 562.283,199.612 568.949,200.779 575.5,202.5C 582.163,203.249 588.496,205.082 594.5,208C 599.643,211.842 604.976,215.509 610.5,219C 615.015,224.015 619.348,229.181 623.5,234.5C 624.992,237.351 626.492,240.351 628,243.5C 628.494,241.866 628.66,240.199 628.5,238.5C 631.833,248.5 635.167,258.5 638.5,268.5C 638.338,270.527 638.505,272.527 639,274.5C 639.383,275.056 639.883,275.389 640.5,275.5C 642.217,280.243 643.884,284.91 645.5,289.5C 645.338,291.527 645.505,293.527 646,295.5C 646.383,296.056 646.883,296.389 647.5,296.5C 650.008,304.857 652.674,313.191 655.5,321.5C 655.294,324.495 655.96,327.162 657.5,329.5C 657.5,330.5 657.5,331.5 657.5,332.5C 657.845,343.907 657.178,355.241 655.5,366.5C 655.5,366.833 655.5,367.167 655.5,367.5C 654.001,368.678 653.001,370.345 652.5,372.5C 638.884,340.465 614.55,323.131 579.5,320.5C 579.389,319.883 579.056,319.383 578.5,319C 548.835,318.5 519.169,318.333 489.5,318.5C 490.11,317.609 490.443,316.609 490.5,315.5C 490.893,313.716 491.559,312.05 492.5,310.5C 495.64,306.772 497.64,302.438 498.5,297.5C 500.097,295.152 501.097,292.486 501.5,289.5C 501.5,289.167 501.5,288.833 501.5,288.5C 503.41,285.548 504.41,282.214 504.5,278.5C 505.499,273.672 505.499,269.005 504.5,264.5C 502.471,262.916 500.138,261.583 497.5,260.5C 494.914,259.52 492.247,259.187 489.5,259.5C 487.898,257.926 485.898,257.259 483.5,257.5C 478.814,256.963 474.147,256.296 469.5,255.5C 456.356,253.07 443.023,252.903 429.5,255C 428.584,255.278 427.918,255.778 427.5,256.5C 425.5,256.833 423.5,257.167 421.5,257.5C 418.084,257.528 415.084,258.528 412.5,260.5C 412.167,260.5 411.833,260.5 411.5,260.5C 409.033,260.755 407.033,261.755 405.5,263.5C 402.514,263.903 399.848,264.903 397.5,266.5C 395.973,266.427 394.973,267.094 394.5,268.5C 392.326,268.75 390.659,269.75 389.5,271.5C 384.783,274.037 380.449,277.204 376.5,281C 374.527,281.495 372.527,281.662 370.5,281.5C 369.365,279.787 367.698,279.12 365.5,279.5C 361.833,278.833 358.167,278.167 354.5,277.5C 351.746,276.054 348.746,275.054 345.5,274.5C 345.167,274.5 344.833,274.5 344.5,274.5C 342.898,272.926 340.898,272.259 338.5,272.5C 335.198,271.706 331.865,271.04 328.5,270.5C 327.365,268.787 325.698,268.12 323.5,268.5C 319.6,266.941 315.6,265.441 311.5,264C 307.311,263.188 303.311,263.355 299.5,264.5C 295.071,266.644 290.738,268.977 286.5,271.5C 283.949,271.668 283.282,272.668 284.5,274.5C 284.5,274.833 284.5,275.167 284.5,275.5C 284.427,277.027 285.094,278.027 286.5,278.5C 293.914,290.992 300.58,303.992 306.5,317.5C 285.844,318.833 264.844,319.5 243.5,319.5C 222.156,319.5 201.156,318.833 180.5,317.5C 180.298,315.05 180.631,312.717 181.5,310.5C 183.138,305.752 184.138,300.752 184.5,295.5C 184.5,294.5 184.5,293.5 184.5,292.5C 186.245,288.8 187.245,284.8 187.5,280.5C 187.279,277.721 187.612,275.054 188.5,272.5C 188.198,269.941 188.532,267.607 189.5,265.5C 190.371,262.997 191.037,260.33 191.5,257.5C 191.532,252.609 192.199,247.943 193.5,243.5C 194.371,240.997 195.037,238.33 195.5,235.5C 195.198,232.941 195.532,230.607 196.5,228.5C 197.739,223.637 198.739,218.637 199.5,213.5C 199.198,210.941 199.532,208.607 200.5,206.5C 202.031,201.75 202.698,196.75 202.5,191.5C 202.902,188.523 203.902,185.857 205.5,183.5 Z"/></g>
<g><path style="opacity:1" fill="#c1e5f2" d="M 202.5,191.5 C 202.698,196.75 202.031,201.75 200.5,206.5C 200.444,201.269 201.111,196.269 202.5,191.5 Z"/></g>
<g><path style="opacity:1" fill="#b3dfee" d="M 199.5,213.5 C 198.739,218.637 197.739,223.637 196.5,228.5C 196.55,224.812 196.884,221.145 197.5,217.5C 197.585,215.667 198.252,214.334 199.5,213.5 Z"/></g>
<g><path style="opacity:1" fill="#45ace1" d="M 625.5,229.5 C 627.289,232.152 628.289,235.152 628.5,238.5C 628.66,240.199 628.494,241.866 628,243.5C 626.492,240.351 624.992,237.351 623.5,234.5C 625.256,233.448 625.923,231.781 625.5,229.5 Z"/></g>
<g><path style="opacity:1" fill="#b6e0ef" d="M 195.5,235.5 C 195.037,238.33 194.371,240.997 193.5,243.5C 192.964,240.302 193.631,237.635 195.5,235.5 Z"/></g>
<g><path style="opacity:1" fill="#cce9f5" d="M 469.5,255.5 C 455.471,255.238 441.471,255.571 427.5,256.5C 427.918,255.778 428.584,255.278 429.5,255C 443.023,252.903 456.356,253.07 469.5,255.5 Z"/></g>
<g><path style="opacity:1" fill="#fefefe" d="M 469.5,255.5 C 474.147,256.296 478.814,256.963 483.5,257.5C 485.102,259.074 487.102,259.741 489.5,259.5C 494.155,261.719 499.155,263.385 504.5,264.5C 505.499,269.005 505.499,273.672 504.5,278.5C 503.307,278.97 502.64,279.97 502.5,281.5C 502.003,283.818 501.67,286.152 501.5,288.5C 501.5,288.833 501.5,289.167 501.5,289.5C 499.307,291.522 498.307,294.189 498.5,297.5C 496.143,301.525 494.143,305.858 492.5,310.5C 491.559,312.05 490.893,313.716 490.5,315.5C 488.75,316.659 487.75,318.326 487.5,320.5C 483.601,325.284 479.934,330.284 476.5,335.5C 467.384,345.937 456.717,354.603 444.5,361.5C 438.282,364.295 431.949,366.795 425.5,369C 424.645,371.436 423.979,373.936 423.5,376.5C 420.604,387.148 417.77,397.815 415,408.5C 411.132,415.994 408.965,423.994 408.5,432.5C 406.674,435.926 405.008,439.592 403.5,443.5C 397.858,446.322 392.525,449.655 387.5,453.5C 384.141,448.482 380.807,443.482 377.5,438.5C 371.932,427.698 365.599,417.365 358.5,407.5C 358.288,405.616 357.288,404.283 355.5,403.5C 351.582,404.798 348.249,406.798 345.5,409.5C 341.221,410.609 337.055,411.942 333,413.5C 330.476,412.822 328.309,411.488 326.5,409.5C 312.958,392.761 301.791,374.428 293,354.5C 291.032,349.307 290.366,343.974 291,338.5C 295.798,334.522 300.965,331.189 306.5,328.5C 308.229,327.883 309.729,326.883 311,325.5C 311.585,324.002 311.085,323.002 309.5,322.5C 309.408,320.152 308.408,318.486 306.5,317.5C 300.58,303.992 293.914,290.992 286.5,278.5C 286.573,276.973 285.906,275.973 284.5,275.5C 284.5,275.167 284.5,274.833 284.5,274.5C 285.167,273.5 285.833,272.5 286.5,271.5C 290.738,268.977 295.071,266.644 299.5,264.5C 307.519,265.647 315.519,266.98 323.5,268.5C 324.635,270.213 326.302,270.88 328.5,270.5C 331.865,271.04 335.198,271.706 338.5,272.5C 340.102,274.074 342.102,274.741 344.5,274.5C 344.833,274.5 345.167,274.5 345.5,274.5C 348.008,276.554 351.008,277.554 354.5,277.5C 358.167,278.167 361.833,278.833 365.5,279.5C 366.635,281.213 368.302,281.88 370.5,281.5C 372.527,281.662 374.527,281.495 376.5,281C 380.449,277.204 384.783,274.037 389.5,271.5C 391.674,271.25 393.341,270.25 394.5,268.5C 396.027,268.573 397.027,267.906 397.5,266.5C 399.848,264.903 402.514,263.903 405.5,263.5C 407.967,263.245 409.967,262.245 411.5,260.5C 411.833,260.5 412.167,260.5 412.5,260.5C 415.855,260.31 418.855,259.31 421.5,257.5C 423.5,257.167 425.5,256.833 427.5,256.5C 441.471,255.571 455.471,255.238 469.5,255.5 Z"/></g>
<g><path style="opacity:1" fill="#b9e1f2" d="M 421.5,257.5 C 418.855,259.31 415.855,260.31 412.5,260.5C 415.084,258.528 418.084,257.528 421.5,257.5 Z"/></g>
<g><path style="opacity:1" fill="#9ed6ed" d="M 483.5,257.5 C 485.898,257.259 487.898,257.926 489.5,259.5C 487.102,259.741 485.102,259.074 483.5,257.5 Z"/></g>
<g><path style="opacity:1" fill="#addced" d="M 191.5,257.5 C 191.037,260.33 190.371,262.997 189.5,265.5C 189.337,263.143 189.503,260.81 190,258.5C 190.383,257.944 190.883,257.611 191.5,257.5 Z"/></g>
<g><path style="opacity:1" fill="#c2e5f4" d="M 411.5,260.5 C 409.967,262.245 407.967,263.245 405.5,263.5C 407.033,261.755 409.033,260.755 411.5,260.5 Z"/></g>
<g><path style="opacity:1" fill="#83cae8" d="M 489.5,259.5 C 492.247,259.187 494.914,259.52 497.5,260.5C 500.138,261.583 502.471,262.916 504.5,264.5C 499.155,263.385 494.155,261.719 489.5,259.5 Z"/></g>
<g><path style="opacity:1" fill="#75c4e5" d="M 299.5,264.5 C 303.311,263.355 307.311,263.188 311.5,264C 315.6,265.441 319.6,266.941 323.5,268.5C 315.519,266.98 307.519,265.647 299.5,264.5 Z"/></g>
<g><path style="opacity:1" fill="#b2def1" d="M 397.5,266.5 C 397.027,267.906 396.027,268.573 394.5,268.5C 394.973,267.094 395.973,266.427 397.5,266.5 Z"/></g>
<g><path style="opacity:1" fill="#a2d7ee" d="M 323.5,268.5 C 325.698,268.12 327.365,268.787 328.5,270.5C 326.302,270.88 324.635,270.213 323.5,268.5 Z"/></g>
<g><path style="opacity:1" fill="#b2def1" d="M 394.5,268.5 C 393.341,270.25 391.674,271.25 389.5,271.5C 390.659,269.75 392.326,268.75 394.5,268.5 Z"/></g>
<g><path style="opacity:1" fill="#acddef" d="M 286.5,271.5 C 285.833,272.5 285.167,273.5 284.5,274.5C 283.282,272.668 283.949,271.668 286.5,271.5 Z"/></g>
<g><path style="opacity:1" fill="#99d4ec" d="M 338.5,272.5 C 340.898,272.259 342.898,272.926 344.5,274.5C 342.102,274.741 340.102,274.074 338.5,272.5 Z"/></g>
<g><path style="opacity:1" fill="#86cce5" d="M 638.5,268.5 C 639.407,270.657 640.073,272.99 640.5,275.5C 639.883,275.389 639.383,275.056 639,274.5C 638.505,272.527 638.338,270.527 638.5,268.5 Z"/></g>
<g><path style="opacity:1" fill="#c9e8f5" d="M 345.5,274.5 C 348.746,275.054 351.746,276.054 354.5,277.5C 351.008,277.554 348.008,276.554 345.5,274.5 Z"/></g>
<g><path style="opacity:1" fill="#c1e5f2" d="M 188.5,272.5 C 187.612,275.054 187.279,277.721 187.5,280.5C 187.167,280.5 186.833,280.5 186.5,280.5C 185.964,277.302 186.631,274.635 188.5,272.5 Z"/></g>
<g><path style="opacity:1" fill="#a3d8ee" d="M 284.5,275.5 C 285.906,275.973 286.573,276.973 286.5,278.5C 285.094,278.027 284.427,277.027 284.5,275.5 Z"/></g>
<g><path style="opacity:1" fill="#a1d7ed" d="M 365.5,279.5 C 367.698,279.12 369.365,279.787 370.5,281.5C 368.302,281.88 366.635,281.213 365.5,279.5 Z"/></g>
<g><path style="opacity:1" fill="#86cce9" d="M 504.5,278.5 C 504.41,282.214 503.41,285.548 501.5,288.5C 501.67,286.152 502.003,283.818 502.5,281.5C 502.64,279.97 503.307,278.97 504.5,278.5 Z"/></g>
<g><path style="opacity:1" fill="#acdcf0" d="M 431.5,287.5 C 426.463,287.413 421.463,287.746 416.5,288.5C 419.186,287.009 422.186,286.343 425.5,286.5C 427.696,286.505 429.696,286.838 431.5,287.5 Z"/></g>
<g><path style="opacity:1" fill="#42b0dd" d="M 431.5,287.5 C 436.149,289.808 440.483,292.475 444.5,295.5C 446.643,297.131 448.31,299.131 449.5,301.5C 449.5,307.167 449.5,312.833 449.5,318.5C 434.167,318.5 418.833,318.5 403.5,318.5C 403.021,311.98 403.688,305.647 405.5,299.5C 408.198,294.802 411.865,291.135 416.5,288.5C 421.463,287.746 426.463,287.413 431.5,287.5 Z"/></g>
<g><path style="opacity:1" fill="#7ac7e3" d="M 186.5,280.5 C 186.833,280.5 187.167,280.5 187.5,280.5C 187.245,284.8 186.245,288.8 184.5,292.5C 184.851,288.316 185.518,284.316 186.5,280.5 Z"/></g>
<g><path style="opacity:1" fill="#85cae8" d="M 431.5,287.5 C 434.827,288.537 438.161,289.704 441.5,291C 442.748,292.4 443.748,293.9 444.5,295.5C 440.483,292.475 436.149,289.808 431.5,287.5 Z"/></g>
<g><path style="opacity:1" fill="#9ad5e8" d="M 645.5,289.5 C 646.407,291.657 647.073,293.99 647.5,296.5C 646.883,296.389 646.383,296.056 646,295.5C 645.505,293.527 645.338,291.527 645.5,289.5 Z"/></g>
<g><path style="opacity:1" fill="#92d0eb" d="M 501.5,289.5 C 501.097,292.486 500.097,295.152 498.5,297.5C 498.307,294.189 499.307,291.522 501.5,289.5 Z"/></g>
<g><path style="opacity:1" fill="#b4dff1" d="M 498.5,297.5 C 497.64,302.438 495.64,306.772 492.5,310.5C 494.143,305.858 496.143,301.525 498.5,297.5 Z"/></g>
<g><path style="opacity:1" fill="#79c6e3" d="M 184.5,295.5 C 184.138,300.752 183.138,305.752 181.5,310.5C 181.5,310.167 181.5,309.833 181.5,309.5C 181.504,305.973 181.837,302.473 182.5,299C 182.608,297.319 183.275,296.152 184.5,295.5 Z"/></g>
<g><path style="opacity:1" fill="#89cde9" d="M 449.5,301.5 C 450.913,304.382 451.579,307.549 451.5,311C 451.7,313.866 451.033,316.366 449.5,318.5C 449.5,312.833 449.5,307.167 449.5,301.5 Z"/></g>
<g><path style="opacity:1" fill="#c2e5f2" d="M 181.5,309.5 C 181.5,309.833 181.5,310.167 181.5,310.5C 180.631,312.717 180.298,315.05 180.5,317.5C 180.167,317.5 179.833,317.5 179.5,317.5C 179.337,315.143 179.503,312.81 180,310.5C 180.383,309.944 180.883,309.611 181.5,309.5 Z"/></g>
<g><path style="opacity:1" fill="#85cbe8" d="M 405.5,299.5 C 403.688,305.647 403.021,311.98 403.5,318.5C 401.114,313.399 400.947,308.066 403,302.5C 403.236,300.881 404.069,299.881 405.5,299.5 Z"/></g>
<g><path style="opacity:1" fill="#72c4db" d="M 179.5,317.5 C 179.833,317.5 180.167,317.5 180.5,317.5C 201.156,318.833 222.156,319.5 243.5,319.5C 264.844,319.5 285.844,318.833 306.5,317.5C 308.408,318.486 309.408,320.152 309.5,322.5C 309.317,324.988 308.317,326.988 306.5,328.5C 300.965,331.189 295.798,334.522 291,338.5C 290.366,343.974 291.032,349.307 293,354.5C 301.791,374.428 312.958,392.761 326.5,409.5C 328.309,411.488 330.476,412.822 333,413.5C 337.055,411.942 341.221,410.609 345.5,409.5C 348.884,408.932 351.884,407.598 354.5,405.5C 356.073,405.752 357.406,406.418 358.5,407.5C 365.599,417.365 371.932,427.698 377.5,438.5C 361.848,439.833 345.848,440.499 329.5,440.5C 313.094,440.493 296.761,440.16 280.5,439.5C 278.167,436.5 275.5,433.833 272.5,431.5C 257.399,414.338 248.066,394.338 244.5,371.5C 240.594,372.228 237.26,374.062 234.5,377C 209.705,386.992 189.038,381.825 172.5,361.5C 172.705,356.728 173.372,352.062 174.5,347.5C 176.225,342.777 177.225,337.777 177.5,332.5C 177.608,327.29 178.275,322.29 179.5,317.5 Z"/></g>
<g><path style="opacity:1" fill="#71c4db" d="M 490.5,315.5 C 490.443,316.609 490.11,317.609 489.5,318.5C 519.148,320.492 549.148,321.159 579.5,320.5C 614.55,323.131 638.884,340.465 652.5,372.5C 653.001,370.345 654.001,368.678 655.5,367.5C 655.167,369.5 654.833,371.5 654.5,373.5C 652.755,375.033 651.755,377.033 651.5,379.5C 650.705,383.084 649.372,386.417 647.5,389.5C 645.755,391.033 644.755,393.033 644.5,395.5C 641.35,402.456 637.184,408.79 632,414.5C 630.472,417.417 629.139,420.417 628,423.5C 627.292,424.381 626.458,425.047 625.5,425.5C 623.917,427.663 622.584,429.996 621.5,432.5C 619.691,435.898 617.691,439.231 615.5,442.5C 612.377,445.976 610.043,449.976 608.5,454.5C 607.193,456.46 605.86,458.46 604.5,460.5C 601.409,463.955 599.076,467.955 597.5,472.5C 595.438,476.925 592.604,480.925 589,484.5C 587.667,488.499 585.834,492.166 583.5,495.5C 582.5,495.5 581.5,495.5 580.5,495.5C 580.345,489.879 578.512,484.879 575,480.5C 570.267,472.764 564.433,465.93 557.5,460C 552.678,457.752 548.345,454.752 544.5,451C 541.336,450.613 538.502,449.446 536,447.5C 526.578,443.782 516.745,441.782 506.5,441.5C 473.671,440.502 440.671,440.168 407.5,440.5C 407.401,437.763 407.735,435.096 408.5,432.5C 408.965,423.994 411.132,415.994 415,408.5C 417.77,397.815 420.604,387.148 423.5,376.5C 425.28,375.01 425.946,373.01 425.5,370.5C 430.357,369.492 435.024,367.992 439.5,366C 441.043,364.261 442.71,362.761 444.5,361.5C 456.717,354.603 467.384,345.937 476.5,335.5C 479.783,333.047 482.616,330.047 485,326.5C 486.122,324.593 486.955,322.593 487.5,320.5C 487.75,318.326 488.75,316.659 490.5,315.5 Z"/></g>
<g><path style="opacity:1" fill="#64bedc" d="M 489.5,318.5 C 519.169,318.333 548.835,318.5 578.5,319C 579.056,319.383 579.389,319.883 579.5,320.5C 549.148,321.159 519.148,320.492 489.5,318.5 Z"/></g>
<g><path style="opacity:1" fill="#73c4dc" d="M 403.5,318.5 C 418.833,318.5 434.167,318.5 449.5,318.5C 443.517,331.829 433.183,337.329 418.5,335C 410.848,331.83 405.848,326.33 403.5,318.5 Z"/></g>
<g><path style="opacity:1" fill="#c5e6f0" d="M 309.5,322.5 C 311.085,323.002 311.585,324.002 311,325.5C 309.729,326.883 308.229,327.883 306.5,328.5C 308.317,326.988 309.317,324.988 309.5,322.5 Z"/></g>
<g><path style="opacity:1" fill="#a4d9ea" d="M 655.5,321.5 C 656.768,323.905 657.435,326.572 657.5,329.5C 655.96,327.162 655.294,324.495 655.5,321.5 Z"/></g>
<g><path style="opacity:1" fill="#a0d7e6" d="M 487.5,320.5 C 486.955,322.593 486.122,324.593 485,326.5C 482.616,330.047 479.783,333.047 476.5,335.5C 479.934,330.284 483.601,325.284 487.5,320.5 Z"/></g>
<g><path style="opacity:1" fill="#7fc9e3" d="M 657.5,332.5 C 658.657,340.656 658.823,348.99 658,357.5C 657.943,360.851 657.109,363.851 655.5,366.5C 657.178,355.241 657.845,343.907 657.5,332.5 Z"/></g>
<g><path style="opacity:1" fill="#9fd7e4" d="M 177.5,332.5 C 177.225,337.777 176.225,342.777 174.5,347.5C 174.5,347.167 174.5,346.833 174.5,346.5C 174.504,342.973 174.837,339.473 175.5,336C 175.608,334.319 176.275,333.152 177.5,332.5 Z"/></g>
<g><path style="opacity:1" fill="#cfebf1" d="M 174.5,346.5 C 174.5,346.833 174.5,347.167 174.5,347.5C 173.372,352.062 172.705,356.728 172.5,361.5C 171.848,360.551 171.514,359.385 171.5,358C 172,354.5 172.5,351 173,347.5C 173.383,346.944 173.883,346.611 174.5,346.5 Z"/></g>
<g><path style="opacity:1" fill="#9fd6e6" d="M 444.5,361.5 C 442.71,362.761 441.043,364.261 439.5,366C 435.024,367.992 430.357,369.492 425.5,370.5C 425.946,373.01 425.28,375.01 423.5,376.5C 423.979,373.936 424.645,371.436 425.5,369C 431.949,366.795 438.282,364.295 444.5,361.5 Z"/></g>
<g><path style="opacity:1" fill="#b9e2ea" d="M 654.5,373.5 C 654.245,375.967 653.245,377.967 651.5,379.5C 651.755,377.033 652.755,375.033 654.5,373.5 Z"/></g>
<g><path style="opacity:1" fill="#bde4eb" d="M 647.5,389.5 C 647.245,391.967 646.245,393.967 644.5,395.5C 644.755,393.033 645.755,391.033 647.5,389.5 Z"/></g>
<g><path style="opacity:1" fill="#a8dbe8" d="M 358.5,407.5 C 357.406,406.418 356.073,405.752 354.5,405.5C 351.884,407.598 348.884,408.932 345.5,409.5C 348.249,406.798 351.582,404.798 355.5,403.5C 357.288,404.283 358.288,405.616 358.5,407.5 Z"/></g>
<g><path style="opacity:1" fill="#c0e5ec" d="M 625.5,425.5 C 625.445,428.614 624.112,430.948 621.5,432.5C 622.584,429.996 623.917,427.663 625.5,425.5 Z"/></g>
<g><path style="opacity:1" fill="#c4e8ed" d="M 272.5,431.5 C 275.5,433.833 278.167,436.5 280.5,439.5C 272.639,440.494 264.639,441.494 256.5,442.5C 257.694,441.223 259.36,440.556 261.5,440.5C 267.162,439.945 272.828,439.445 278.5,439C 275.882,436.894 273.882,434.394 272.5,431.5 Z"/></g>
<g><path style="opacity:1" fill="#8ed3dc" d="M 408.5,432.5 C 407.735,435.096 407.401,437.763 407.5,440.5C 440.671,440.168 473.671,440.502 506.5,441.5C 472.832,441.333 439.165,441.5 405.5,442C 404.956,442.717 404.289,443.217 403.5,443.5C 405.008,439.592 406.674,435.926 408.5,432.5 Z"/></g>
<g><path style="opacity:1" fill="#96d8da" d="M 377.5,438.5 C 380.807,443.482 384.141,448.482 387.5,453.5C 392.525,449.655 397.858,446.322 403.5,443.5C 404.289,443.217 404.956,442.717 405.5,442C 439.165,441.5 472.832,441.333 506.5,441.5C 516.745,441.782 526.578,443.782 536,447.5C 538.502,449.446 541.336,450.613 544.5,451C 548.345,454.752 552.678,457.752 557.5,460C 564.433,465.93 570.267,472.764 575,480.5C 578.512,484.879 580.345,489.879 580.5,495.5C 581.5,495.5 582.5,495.5 583.5,495.5C 577.337,503.027 572.337,511.361 568.5,520.5C 567,522.167 565.5,523.833 564,525.5C 554.945,540.384 546.111,555.384 537.5,570.5C 533.101,576 529.434,582 526.5,588.5C 520.984,598.687 514.65,608.353 507.5,617.5C 505.956,610.392 503.123,603.725 499,597.5C 482.136,576.814 460.302,565.147 433.5,562.5C 432.081,561.549 430.415,561.216 428.5,561.5C 331.335,560.501 234.001,560.167 136.5,560.5C 136.5,559.5 136.5,558.5 136.5,557.5C 150.489,498.678 186.489,460.845 244.5,444C 248.466,443.172 252.466,442.672 256.5,442.5C 264.639,441.494 272.639,440.494 280.5,439.5C 296.761,440.16 313.094,440.493 329.5,440.5C 345.848,440.499 361.848,439.833 377.5,438.5 Z"/></g>
<g><path style="opacity:1" fill="#cbe9ef" d="M 615.5,442.5 C 614.252,447.2 611.918,451.2 608.5,454.5C 610.043,449.976 612.377,445.976 615.5,442.5 Z"/></g>
<g><path style="opacity:1" fill="#cfebf0" d="M 604.5,460.5 C 603.388,465.264 601.054,469.264 597.5,472.5C 599.076,467.955 601.409,463.955 604.5,460.5 Z"/></g>
<g><path style="opacity:1" fill="#9fdcda" d="M 136.5,557.5 C 136.5,558.5 136.5,559.5 136.5,560.5C 234.001,560.167 331.335,560.501 428.5,561.5C 330.833,561.5 233.167,561.5 135.5,561.5C 135.5,560.5 135.5,559.5 135.5,558.5C 135.5,557.833 135.833,557.5 136.5,557.5 Z"/></g>
<g><path style="opacity:1" fill="#b3e4d9" d="M 135.5,558.5 C 135.5,559.5 135.5,560.5 135.5,561.5C 233.167,561.5 330.833,561.5 428.5,561.5C 430.415,561.216 432.081,561.549 433.5,562.5C 333.833,562.5 234.167,562.5 134.5,562.5C 134.232,560.901 134.566,559.568 135.5,558.5 Z"/></g>
<g><path style="opacity:1" fill="#c7ecd8" d="M 134.5,562.5 C 234.167,562.5 333.833,562.5 433.5,562.5C 460.302,565.147 482.136,576.814 499,597.5C 503.123,603.725 505.956,610.392 507.5,617.5C 499.314,632.209 490.481,646.542 481,660.5C 476.481,664.022 472.315,667.855 468.5,672C 463.268,673.529 458.268,675.362 453.5,677.5C 339.855,678.492 226.188,678.825 112.5,678.5C 113.264,673.37 113.93,668.203 114.5,663C 117.13,650.445 119.964,637.945 123,625.5C 123.885,612.812 126.219,600.478 130,588.5C 130.529,579.568 132.029,570.901 134.5,562.5 Z"/></g>
<g><path style="opacity:1" fill="#d6efee" d="M 537.5,570.5 C 535.929,574.731 533.929,578.731 531.5,582.5C 529.815,584.571 528.148,586.571 526.5,588.5C 529.434,582 533.101,576 537.5,570.5 Z"/></g>
<g><path style="opacity:1" fill="#e1f5ea" d="M 453.5,677.5 C 453.082,678.222 452.416,678.722 451.5,679C 338.333,679.833 225.333,679.666 112.5,678.5C 226.188,678.825 339.855,678.492 453.5,677.5 Z"/></g>
</svg>
