<?xml version="1.0" encoding="UTF-8"?>
<!DOCTYPE svg PUBLIC "-//W3C//DTD SVG 1.1//EN" "http://www.w3.org/Graphics/SVG/1.1/DTD/svg11.dtd">
<svg xmlns="http://www.w3.org/2000/svg" version="1.1" width="1708px" height="443px" style="shape-rendering:geometricPrecision; text-rendering:geometricPrecision; image-rendering:optimizeQuality; fill-rule:evenodd; clip-rule:evenodd" xmlns:xlink="http://www.w3.org/1999/xlink">
<g><path style="opacity:1" fill="#fefefe" d="M -0.5,-0.5 C 568.833,-0.5 1138.17,-0.5 1707.5,-0.5C 1707.5,147.167 1707.5,294.833 1707.5,442.5C 1138.17,442.5 568.833,442.5 -0.5,442.5C -0.5,294.833 -0.5,147.167 -0.5,-0.5 Z"/></g>
<g><path style="opacity:1" fill="#71c5eb" d="M 322.5,28.5 C 253.096,28.1702 183.762,28.5036 114.5,29.5C 148.827,28.1668 183.494,27.5001 218.5,27.5C 253.335,27.5 288.002,27.8333 322.5,28.5 Z"/></g>
<g><path style="opacity:1" fill="#109cdf" d="M 322.5,28.5 C 330.915,30.41 336.748,35.41 340,43.5C 348.128,68.0852 355.961,92.7519 363.5,117.5C 363.649,118.552 363.483,119.552 363,120.5C 353.355,106.089 339.855,97.922 322.5,96C 249.501,95.5 176.501,95.3333 103.5,95.5C 103.5,94.1667 103.5,92.8333 103.5,91.5C 106.909,70.7872 110.576,50.1205 114.5,29.5C 183.762,28.5036 253.096,28.1702 322.5,28.5 Z"/></g>
<g><path style="opacity:1" fill="#41b0dd" d="M 103.5,91.5 C 103.5,92.8333 103.5,94.1667 103.5,95.5C 176.501,95.3333 249.501,95.5 322.5,96C 339.855,97.922 353.355,106.089 363,120.5C 363.483,119.552 363.649,118.552 363.5,117.5C 369.308,136.155 375.474,154.822 382,173.5C 382.667,180.167 382.667,186.833 382,193.5C 381.974,197.179 381.14,200.512 379.5,203.5C 371.256,183.67 356.256,172.503 334.5,170C 315.995,169.832 297.662,169.332 279.5,168.5C 282.265,161.964 284.765,155.297 287,148.5C 287.998,144.527 288.331,140.527 288,136.5C 259.111,124.214 232.611,127.881 208.5,147.5C 194.867,143.901 181.2,140.401 167.5,137C 161.67,136.077 156.67,137.744 152.5,142C 157.574,150.65 162.241,159.483 166.5,168.5C 140.997,169.829 115.33,169.829 89.5,168.5C 90.4066,165.579 90.7399,162.579 90.5,159.5C 94.2341,136.592 98.5675,113.926 103.5,91.5 Z"/></g>
<g><path style="opacity:1" fill="#fdfefe" d="M 279.5,168.5 C 269.852,183.801 256.519,194.801 239.5,201.5C 235.361,215.056 231.695,228.722 228.5,242.5C 227.399,243.848 226.399,245.348 225.5,247C 222.166,248.331 219.166,250.165 216.5,252.5C 214.228,249.607 212.228,246.607 210.5,243.5C 206.552,236.441 202.219,229.608 197.5,223C 192.288,224.736 186.954,226.069 181.5,227C 169.086,215.153 160.753,200.82 156.5,184C 156.833,183.167 157.167,182.333 157.5,181.5C 161.559,179.141 165.226,176.308 168.5,173C 168.101,171.272 167.434,169.772 166.5,168.5C 162.241,159.483 157.574,150.65 152.5,142C 156.67,137.744 161.67,136.077 167.5,137C 181.2,140.401 194.867,143.901 208.5,147.5C 232.611,127.881 259.111,124.214 288,136.5C 288.331,140.527 287.998,144.527 287,148.5C 284.765,155.297 282.265,161.964 279.5,168.5 Z"/></g>
<g><path style="opacity:1" fill="#45b1dd" d="M 254.5,169.5 C 245.167,169.5 235.833,169.5 226.5,169.5C 224.044,158.451 228.544,152.118 240,150.5C 251.878,151.537 256.712,157.871 254.5,169.5 Z"/></g>
<g><path style="opacity:1" fill="#139cdf" d="M 670.5,153.5 C 670.5,165.5 670.5,177.5 670.5,189.5C 680.167,189.5 689.833,189.5 699.5,189.5C 700.49,195.31 700.823,201.31 700.5,207.5C 690.828,207.334 681.161,207.5 671.5,208C 670.84,217.425 670.506,226.925 670.5,236.5C 670.357,246.595 670.857,256.595 672,266.5C 672.833,267.333 673.667,268.167 674.5,269C 683.16,269.5 691.827,269.666 700.5,269.5C 700.5,275.5 700.5,281.5 700.5,287.5C 688.136,287.752 675.803,287.418 663.5,286.5C 652.653,282.482 645.819,274.816 643,263.5C 642.5,244.836 642.333,226.17 642.5,207.5C 635.833,207.5 629.167,207.5 622.5,207.5C 622.5,201.5 622.5,195.5 622.5,189.5C 629.167,189.5 635.833,189.5 642.5,189.5C 642.5,177.5 642.5,165.5 642.5,153.5C 651.833,153.5 661.167,153.5 670.5,153.5 Z"/></g>
<g><path style="opacity:1" fill="#149cdf" d="M 1334.5,287.5 C 1315.48,287.769 1296.48,287.435 1277.5,286.5C 1267.42,282.913 1260.92,275.913 1258,265.5C 1257.33,247.5 1257.33,229.5 1258,211.5C 1261.83,201 1269,193.833 1279.5,190C 1296.5,189.5 1313.5,189.333 1330.5,189.5C 1330.5,177.5 1330.5,165.5 1330.5,153.5C 1339.83,153.5 1349.17,153.5 1358.5,153.5C 1358.67,190.502 1358.5,227.502 1358,264.5C 1354.92,277.084 1347.08,284.751 1334.5,287.5 Z"/></g>
<g><path style="opacity:1" fill="#149cdf" d="M 1518.5,153.5 C 1527.83,153.5 1537.17,153.5 1546.5,153.5C 1546.5,161.5 1546.5,169.5 1546.5,177.5C 1537.17,177.5 1527.83,177.5 1518.5,177.5C 1518.5,169.5 1518.5,161.5 1518.5,153.5 Z"/></g>
<g><path style="opacity:1" fill="#129cdf" d="M 468.5,154.5 C 477.833,154.5 487.167,154.5 496.5,154.5C 496.5,199.167 496.5,243.833 496.5,288.5C 487.167,288.5 477.833,288.5 468.5,288.5C 468.5,243.833 468.5,199.167 468.5,154.5 Z"/></g>
<g><path style="opacity:1" fill="#159cdf" d="M 1142.5,288.5 C 1133.83,288.5 1125.17,288.5 1116.5,288.5C 1116.5,287.5 1116.5,286.5 1116.5,285.5C 1131.82,242.376 1147.65,199.376 1164,156.5C 1169.42,155.192 1175.09,154.525 1181,154.5C 1186.5,154.667 1192,154.833 1197.5,155C 1214.33,199.338 1230.67,243.838 1246.5,288.5C 1237.14,288.832 1227.81,288.498 1218.5,287.5C 1215.03,277.755 1211.36,268.089 1207.5,258.5C 1189.84,257.334 1172.18,257.167 1154.5,258C 1150.77,268.368 1146.77,278.535 1142.5,288.5 Z"/></g>
<g><path style="opacity:1" fill="#72c4db" d="M 90.5,159.5 C 90.7399,162.579 90.4066,165.579 89.5,168.5C 115.33,169.829 140.997,169.829 166.5,168.5C 167.434,169.772 168.101,171.272 168.5,173C 165.226,176.308 161.559,179.141 157.5,181.5C 157.167,182.333 156.833,183.167 156.5,184C 160.753,200.82 169.086,215.153 181.5,227C 186.954,226.069 192.288,224.736 197.5,223C 202.219,229.608 206.552,236.441 210.5,243.5C 190.671,244.662 170.671,244.829 150.5,244C 149.956,243.283 149.289,242.783 148.5,242.5C 137.988,230.809 131.155,217.143 128,201.5C 111.987,212.181 97.4867,210.514 84.5,196.5C 84.1667,195.667 83.8333,194.833 83.5,194C 86.3095,182.451 88.6428,170.951 90.5,159.5 Z"/></g>
<g><path style="opacity:1" fill="#72c4db" d="M 226.5,169.5 C 235.833,169.5 245.167,169.5 254.5,169.5C 250.282,178.312 243.282,181.479 233.5,179C 230.074,176.651 227.74,173.484 226.5,169.5 Z"/></g>
<g><path style="opacity:1" fill="#71c4db" d="M 279.5,168.5 C 297.662,169.332 315.995,169.832 334.5,170C 356.256,172.503 371.256,183.67 379.5,203.5C 377.902,208.701 375.735,213.701 373,218.5C 360.584,238.329 348.417,258.329 336.5,278.5C 333.16,270.372 328.16,263.205 321.5,257C 314.543,251.998 306.876,248.331 298.5,246C 274.842,245.246 251.509,244.079 228.5,242.5C 231.695,228.722 235.361,215.056 239.5,201.5C 256.519,194.801 269.852,183.801 279.5,168.5 Z"/></g>
<g><path style="opacity:1" fill="#b6e0f5" d="M 584.5,189.5 C 569.138,189.231 553.805,189.564 538.5,190.5C 539.263,189.732 540.263,189.232 541.5,189C 556.006,188.173 570.339,188.339 584.5,189.5 Z"/></g>
<g><path style="opacity:1" fill="#c9e8f7" d="M 670.5,153.5 C 671.495,164.988 671.828,176.655 671.5,188.5C 681.015,188.173 690.348,188.506 699.5,189.5C 689.833,189.5 680.167,189.5 670.5,189.5C 670.5,177.5 670.5,165.5 670.5,153.5 Z"/></g>
<g><path style="opacity:1" fill="#fbfdfe" d="M 1199.5,238.5 C 1186.99,238.829 1174.66,238.495 1162.5,237.5C 1168.4,220.706 1174.57,204.04 1181,187.5C 1187.48,204.432 1193.64,221.432 1199.5,238.5 Z"/></g>
<g><path style="opacity:1" fill="#b5e0f5" d="M 1631.5,189.5 C 1616.14,189.231 1600.8,189.564 1585.5,190.5C 1586.26,189.732 1587.26,189.232 1588.5,189C 1603.01,188.173 1617.34,188.339 1631.5,189.5 Z"/></g>
<g><path style="opacity:1" fill="#129cdf" d="M 584.5,189.5 C 597.441,191.38 606.274,198.38 611,210.5C 611.5,236.498 611.667,262.498 611.5,288.5C 602.5,288.5 593.5,288.5 584.5,288.5C 584.667,263.498 584.5,238.498 584,213.5C 582.833,211 581,209.167 578.5,208C 568.833,207.333 559.167,207.333 549.5,208C 547.91,209.046 546.41,210.213 545,211.5C 544.5,237.165 544.333,262.831 544.5,288.5C 535.167,288.5 525.833,288.5 516.5,288.5C 516.333,263.164 516.5,237.831 517,212.5C 520.326,201.341 527.493,194.008 538.5,190.5C 553.805,189.564 569.138,189.231 584.5,189.5 Z"/></g>
<g><path style="opacity:1" fill="#189ddf" d="M 783.5,248.5 C 768.692,249.118 754.026,249.785 739.5,250.5C 739.334,254.846 739.501,259.179 740,263.5C 741.167,266 743,267.833 745.5,269C 765.833,269.333 786.167,269.667 806.5,270C 807.825,275.932 807.825,281.766 806.5,287.5C 783.811,287.78 761.145,287.447 738.5,286.5C 722.981,281.316 713.981,270.649 711.5,254.5C 711.029,241.084 711.696,227.75 713.5,214.5C 723.504,194.329 739.837,185.996 762.5,189.5C 776.816,186.467 788.982,190.133 799,200.5C 808.971,216.479 807.138,230.979 793.5,244C 790.264,245.786 786.93,247.286 783.5,248.5 Z"/></g>
<g><path style="opacity:1" fill="#129cdf" d="M 839.5,189.5 C 858.167,189.5 876.833,189.5 895.5,189.5C 895.5,195.5 895.5,201.5 895.5,207.5C 880.83,207.333 866.163,207.5 851.5,208C 849.152,208.346 847.319,209.513 846,211.5C 845.5,237.165 845.333,262.831 845.5,288.5C 836.167,288.5 826.833,288.5 817.5,288.5C 817.333,262.831 817.5,237.165 818,211.5C 822.019,200.982 829.186,193.648 839.5,189.5 Z"/></g>
<g><path style="opacity:1" fill="#169cdf" d="M 1001.5,287.5 C 992.5,287.5 983.5,287.5 974.5,287.5C 974.831,262.661 974.498,237.994 973.5,213.5C 972.746,210.909 971.079,209.076 968.5,208C 958.5,207.333 948.5,207.333 938.5,208C 936.959,209.371 935.625,210.871 934.5,212.5C 933.502,237.328 933.169,262.328 933.5,287.5C 924.5,287.5 915.5,287.5 906.5,287.5C 905.337,263.003 905.17,238.337 906,213.5C 908.665,202.667 915.165,195.167 925.5,191C 934.763,189.874 944.096,189.374 953.5,189.5C 961.833,189.667 970.167,189.833 978.5,190C 988.424,192.922 995.591,199.088 1000,208.5C 1001.47,234.769 1001.97,261.102 1001.5,287.5 Z"/></g>
<g><path style="opacity:1" fill="#179ddf" d="M 1397.5,212.5 C 1396.5,237.328 1396.17,262.328 1396.5,287.5C 1387.5,287.5 1378.5,287.5 1369.5,287.5C 1369.2,259.475 1369.53,231.475 1370.5,203.5C 1373.07,197.009 1377.74,192.509 1384.5,190C 1398.17,189.333 1411.83,189.333 1425.5,190C 1430.24,191.068 1433.4,193.901 1435,198.5C 1437.17,195 1440,192.167 1443.5,190C 1457.83,189.333 1472.17,189.333 1486.5,190C 1495.07,193.302 1500.24,199.469 1502,208.5C 1502.67,234.833 1502.67,261.167 1502,287.5C 1492.58,288.485 1483.08,288.818 1473.5,288.5C 1473.67,262.831 1473.5,237.165 1473,211.5C 1469.95,208.09 1466.12,206.756 1461.5,207.5C 1456.36,206.445 1452.53,208.111 1450,212.5C 1449.5,237.831 1449.33,263.164 1449.5,288.5C 1440.17,288.5 1430.83,288.5 1421.5,288.5C 1421.67,262.831 1421.5,237.165 1421,211.5C 1417.52,208.137 1413.35,206.803 1408.5,207.5C 1403.48,206.426 1399.81,208.093 1397.5,212.5 Z"/></g>
<g><path style="opacity:1" fill="#109cdf" d="M 1519.5,189.5 C 1528.5,189.5 1537.5,189.5 1546.5,189.5C 1546.5,222.167 1546.5,254.833 1546.5,287.5C 1537.5,287.5 1528.5,287.5 1519.5,287.5C 1519.5,254.833 1519.5,222.167 1519.5,189.5 Z"/></g>
<g><path style="opacity:1" fill="#129cdf" d="M 1631.5,189.5 C 1644.44,191.38 1653.27,198.38 1658,210.5C 1658.5,236.498 1658.67,262.498 1658.5,288.5C 1649.5,288.5 1640.5,288.5 1631.5,288.5C 1631.67,263.498 1631.5,238.498 1631,213.5C 1629.83,211 1628,209.167 1625.5,208C 1616.17,207.333 1606.83,207.333 1597.5,208C 1595.15,208.346 1593.32,209.513 1592,211.5C 1591.5,237.165 1591.33,262.831 1591.5,288.5C 1582.17,288.5 1572.83,288.5 1563.5,288.5C 1563.33,262.831 1563.5,237.165 1564,211.5C 1567.75,200.912 1574.92,193.912 1585.5,190.5C 1600.8,189.564 1616.14,189.231 1631.5,189.5 Z"/></g>
<g><path style="opacity:1" fill="#46b2e6" d="M 1519.5,189.5 C 1519.5,222.167 1519.5,254.833 1519.5,287.5C 1528.5,287.5 1537.5,287.5 1546.5,287.5C 1537.35,288.494 1528.01,288.827 1518.5,288.5C 1518.17,255.329 1518.5,222.329 1519.5,189.5 Z"/></g>
<g><path style="opacity:1" fill="#fafdfe" d="M 747.5,207.5 C 755.611,207.065 763.611,207.565 771.5,209C 777.486,213.168 778.986,218.668 776,225.5C 775.07,227.552 773.57,229.052 771.5,230C 760.839,230.5 750.172,230.667 739.5,230.5C 739.334,225.156 739.501,219.823 740,214.5C 741.742,211.254 744.242,208.921 747.5,207.5 Z"/></g>
<g><path style="opacity:1" fill="#fefefe" d="M 1290.5,208.5 C 1303.5,208.5 1316.5,208.5 1329.5,208.5C 1329.5,227.5 1329.5,246.5 1329.5,265.5C 1329.43,267.411 1328.43,268.578 1326.5,269C 1314.17,269.667 1301.83,269.667 1289.5,269C 1288.58,268.626 1287.75,268.126 1287,267.5C 1285.36,248.924 1285.03,230.257 1286,211.5C 1287.13,209.859 1288.63,208.859 1290.5,208.5 Z"/></g>
<g><path style="opacity:1" fill="#84cbee" d="M 1370.5,203.5 C 1369.53,231.475 1369.2,259.475 1369.5,287.5C 1368.34,260.67 1368.17,233.67 1369,206.5C 1369.23,205.263 1369.73,204.263 1370.5,203.5 Z"/></g>
<g><path style="opacity:1" fill="#cbe9f7" d="M 1290.5,208.5 C 1303.66,207.504 1316.99,207.171 1330.5,207.5C 1330.83,227.007 1330.5,246.341 1329.5,265.5C 1329.5,246.5 1329.5,227.5 1329.5,208.5C 1316.5,208.5 1303.5,208.5 1290.5,208.5 Z"/></g>
<g><path style="opacity:1" fill="#39ace4" d="M 934.5,212.5 C 934.5,237.833 934.5,263.167 934.5,288.5C 924.985,288.827 915.652,288.494 906.5,287.5C 915.5,287.5 924.5,287.5 933.5,287.5C 933.169,262.328 933.502,237.328 934.5,212.5 Z"/></g>
<g><path style="opacity:1" fill="#3bade4" d="M 1397.5,212.5 C 1397.5,237.833 1397.5,263.167 1397.5,288.5C 1387.99,288.827 1378.65,288.494 1369.5,287.5C 1378.5,287.5 1387.5,287.5 1396.5,287.5C 1396.17,262.328 1396.5,237.328 1397.5,212.5 Z"/></g>
<g><path style="opacity:1" fill="#5abae9" d="M 973.5,213.5 C 974.498,237.994 974.831,262.661 974.5,287.5C 983.5,287.5 992.5,287.5 1001.5,287.5C 992.348,288.494 983.015,288.827 973.5,288.5C 973.5,263.5 973.5,238.5 973.5,213.5 Z"/></g>
<g><path style="opacity:1" fill="#51b5e6" d="M 713.5,214.5 C 711.696,227.75 711.029,241.084 711.5,254.5C 710.341,244.008 710.175,233.341 711,222.5C 711.279,219.543 712.113,216.877 713.5,214.5 Z"/></g>
<g><path style="opacity:1" fill="#abdcf3" d="M 1162.5,237.5 C 1174.66,238.495 1186.99,238.829 1199.5,238.5C 1186.99,239.825 1174.33,239.825 1161.5,238.5C 1161.62,237.893 1161.96,237.56 1162.5,237.5 Z"/></g>
<g><path style="opacity:1" fill="#96d8da" d="M 148.5,242.5 C 149.289,242.783 149.956,243.283 150.5,244C 170.671,244.829 190.671,244.662 210.5,243.5C 212.228,246.607 214.228,249.607 216.5,252.5C 219.166,250.165 222.166,248.331 225.5,247C 226.399,245.348 227.399,243.848 228.5,242.5C 251.509,244.079 274.842,245.246 298.5,246C 306.876,248.331 314.543,251.998 321.5,257C 328.16,263.205 333.16,270.372 336.5,278.5C 320.916,303.333 305.582,328.333 290.5,353.5C 283.992,335.182 270.992,324.015 251.5,320C 187.825,320.164 124.492,319.331 61.5,317.5C 73.5505,272.78 102.55,247.78 148.5,242.5 Z"/></g>
<g><path style="opacity:1" fill="#bce2f5" d="M 783.5,248.5 C 783.082,249.222 782.416,249.722 781.5,250C 767.504,250.5 753.504,250.667 739.5,250.5C 754.026,249.785 768.692,249.118 783.5,248.5 Z"/></g>
<g><path style="opacity:1" fill="#7ec9ed" d="M 663.5,286.5 C 675.803,287.418 688.136,287.752 700.5,287.5C 689.341,288.659 678.008,288.826 666.5,288C 665.263,287.768 664.263,287.268 663.5,286.5 Z"/></g>
<g><path style="opacity:1" fill="#4bb3e6" d="M 738.5,286.5 C 761.145,287.447 783.811,287.78 806.5,287.5C 785.337,288.663 764.004,288.829 742.5,288C 740.942,287.79 739.609,287.29 738.5,286.5 Z"/></g>
<g><path style="opacity:1" fill="#7dc8ed" d="M 1277.5,286.5 C 1296.48,287.435 1315.48,287.769 1334.5,287.5C 1317,288.662 1299.34,288.829 1281.5,288C 1279.94,287.79 1278.61,287.29 1277.5,286.5 Z"/></g>
<g><path style="opacity:1" fill="#92d2f0" d="M 1116.5,285.5 C 1116.5,286.5 1116.5,287.5 1116.5,288.5C 1125.17,288.5 1133.83,288.5 1142.5,288.5C 1133.68,289.493 1124.68,289.827 1115.5,289.5C 1115.23,287.901 1115.57,286.568 1116.5,285.5 Z"/></g>
<g><path style="opacity:1" fill="#c7ecd8" d="M 61.5,317.5 C 124.492,319.331 187.825,320.164 251.5,320C 270.992,324.015 283.992,335.182 290.5,353.5C 285.131,361.704 279.964,370.037 275,378.5C 268.797,385.685 260.964,389.852 251.5,391C 183.501,391.5 115.501,391.667 47.5,391.5C 51.1597,366.506 55.8264,341.839 61.5,317.5 Z"/></g>
</svg>
